<?xml version="1.0" encoding="UTF-8" standalone="no"?><!DOCTYPE svg PUBLIC "-//W3C//DTD SVG 1.1//EN" "http://www.w3.org/Graphics/SVG/1.1/DTD/svg11.dtd"><svg width="100%" height="100%" viewBox="0 0 126 134" version="1.1" xmlns="http://www.w3.org/2000/svg" xmlns:xlink="http://www.w3.org/1999/xlink" xml:space="preserve" xmlns:serif="http://www.serif.com/" style="fill-rule:evenodd;clip-rule:evenodd;stroke-linejoin:round;stroke-miterlimit:2;"><g><rect x="0" y="0" width="125.795" height="133.107" style="fill:none;"/><path d="M45.235,99.347c-5.412,-6.549 -10.038,-15.569 -10.31,-27.397c-0.141,-6.146 1.235,-10.801 3.443,-14.325c-2.447,-0.717 -4.127,-1.374 -4.985,-1.728c-0.225,-0.093 -0.444,-0.187 -0.545,-0.23c-1.167,-0.437 -1.999,-1.564 -1.999,-2.883l0.114,-0.828l0.382,-0.846l0.45,-0.545l0.703,-0.506l1.207,-0.344l1.073,0.112c0.046,0.013 0.306,0.105 0.758,0.296c0.927,0.392 3.476,1.405 7.49,2.361c0.525,0.125 1.074,0.249 1.648,0.37c-0.253,-0.348 -0.505,-0.693 -0.755,-1.034c-9.767,-13.326 -17.258,-21.445 -22.552,-24.564c-1.463,-0.862 -1.951,-2.75 -1.089,-4.213c0.862,-1.463 2.75,-1.951 4.213,-1.089c5.416,3.191 13.154,11.29 23.132,24.63c-1.189,-8.936 -2.851,-18.325 -3.437,-21.555c-0.126,-0.685 0.244,-1.365 0.888,-1.63c2.687,-1.051 9.914,-3.567 17.763,-3.555c7.855,-0.011 15.088,2.508 17.768,3.561c0.639,0.264 1.009,0.937 0.888,1.617c-0.562,3.229 -2.173,12.645 -3.326,21.592c9.989,-13.358 17.735,-21.467 23.155,-24.661c1.463,-0.862 3.351,-0.374 4.213,1.089c0.862,1.463 0.374,3.351 -1.089,4.213c-5.294,3.119 -12.785,11.238 -22.552,24.564l-0.54,0.738c0.357,-0.069 0.715,-0.14 1.075,-0.214c2.73,-0.556 5.562,-1.235 8.493,-2.052c1.636,-0.456 3.335,0.501 3.791,2.137c0.456,1.636 -0.501,3.335 -2.137,3.791c-1.809,0.505 -3.582,0.959 -5.319,1.366c2.232,3.529 3.626,8.195 3.484,14.363c-0.273,11.87 -4.931,20.913 -10.368,27.467l-0.092,0.111c-7.585,9.091 -16.641,13.357 -17.416,13.711l-0,0.024l-0.027,-0.012l-0.027,0.012l-0,-0.024c-0.777,-0.356 -9.873,-4.64 -17.468,-13.774l-0.098,-0.118Zm8.763,-51.348c0.177,1.414 0.34,2.804 0.481,4.144c5.616,0.509 11.232,0.481 16.847,-0.078c0.144,-1.391 0.308,-2.835 0.488,-4.303c0.643,0.1 0.639,0 0.017,-0.141c-5.019,-1.14 -9.07,-0.903 -9.07,-0.903c0,0 -3.92,-0.23 -8.818,0.856l0.054,0.425Zm-1.479,50.323c3.86,3.938 7.816,6.551 10.309,7.988c2.451,-1.413 6.316,-3.962 10.113,-7.789l-1.133,-2.158l-7.813,4.163c-0.905,0.482 -1.99,0.482 -2.894,0l-7.691,-4.098l-0.891,1.894Zm20.101,-56.649c0.742,-5.269 1.558,-10.341 2.155,-13.903c-2.839,-0.876 -6.979,-1.779 -11.938,-1.772l-0.018,0c-4.943,-0.007 -9.072,0.891 -11.91,1.764c0.628,3.625 1.489,8.804 2.265,14.165c4.745,-0.693 12.142,-1.343 19.446,-0.253Zm4.625,51.806c3.972,-5.46 7.125,-12.616 7.333,-21.67c0.136,-5.927 -1.61,-10.009 -4.159,-12.819c-15.214,2.679 -27.232,1.767 -35.399,0.222c-2.429,2.801 -4.075,6.824 -3.943,12.597c0.203,8.863 3.229,15.906 7.082,21.321l1.058,-2.249c0.359,-0.763 1.015,-1.345 1.814,-1.61c0.8,-0.266 1.674,-0.192 2.417,0.205l9.099,4.848l9.099,-4.848c0.723,-0.385 1.57,-0.466 2.353,-0.225c0.783,0.241 1.438,0.785 1.818,1.51l1.428,2.718Z" style="fill:#00a750;"/></g></svg>